<mxfile host="app.diagrams.net" modified="2024-05-28T14:51:02.700Z" agent="Mozilla/5.0 (Windows NT 10.0; Win64; x64) AppleWebKit/537.36 (KHTML, like Gecko) Chrome/121.0.0.0 Safari/537.36" etag="SDDkiS68uXSTsP3q3ZNZ" version="24.4.9" type="device" pages="2">
  <diagram name="Página-1" id="NOJBGRvKAt00Hyooye8H">
    <mxGraphModel dx="2049" dy="1117" grid="1" gridSize="10" guides="1" tooltips="1" connect="1" arrows="1" fold="1" page="1" pageScale="1" pageWidth="827" pageHeight="1169" math="0" shadow="0">
      <root>
        <mxCell id="0" />
        <mxCell id="1" parent="0" />
        <mxCell id="uus3mkcE4M_ktHhEIIyK-1" value="" style="rounded=1;whiteSpace=wrap;html=1;strokeColor=#333333;fillColor=#333333;" vertex="1" parent="1">
          <mxGeometry x="230" width="340" height="530" as="geometry" />
        </mxCell>
        <mxCell id="uus3mkcE4M_ktHhEIIyK-64" value="tela de inicio" style="text;html=1;align=center;verticalAlign=middle;resizable=0;points=[];autosize=1;fontStyle=1;fontFamily=Helvetica;fontSize=30;fillColor=none;strokeColor=none;fontColor=#E6E6E6;textOpacity=80;" vertex="1" parent="1">
          <mxGeometry x="305" width="190" height="50" as="geometry" />
        </mxCell>
        <mxCell id="uus3mkcE4M_ktHhEIIyK-66" value="&lt;p style=&quot;line-height: 120%; font-size: 14px;&quot;&gt;clientes&lt;/p&gt;" style="rounded=1;whiteSpace=wrap;html=1;opacity=50;" vertex="1" parent="1">
          <mxGeometry x="240" y="140" width="320" height="50" as="geometry" />
        </mxCell>
        <mxCell id="uus3mkcE4M_ktHhEIIyK-67" value="fornecedores" style="rounded=1;whiteSpace=wrap;html=1;fontSize=13;opacity=50;" vertex="1" parent="1">
          <mxGeometry x="240" y="200" width="320" height="50" as="geometry" />
        </mxCell>
        <mxCell id="uus3mkcE4M_ktHhEIIyK-68" value="pedidos" style="rounded=1;whiteSpace=wrap;html=1;fontSize=13;opacity=50;" vertex="1" parent="1">
          <mxGeometry x="240" y="260" width="320" height="50" as="geometry" />
        </mxCell>
        <mxCell id="Sms47V91jZUVCMup1u5s-1" value="" style="rounded=1;whiteSpace=wrap;html=1;fillColor=#333333;" vertex="1" parent="1">
          <mxGeometry x="10" y="540" width="800" height="500" as="geometry" />
        </mxCell>
        <mxCell id="Sms47V91jZUVCMup1u5s-6" value="" style="edgeStyle=orthogonalEdgeStyle;rounded=0;orthogonalLoop=1;jettySize=auto;html=1;" edge="1" parent="1" source="Sms47V91jZUVCMup1u5s-2" target="Sms47V91jZUVCMup1u5s-4">
          <mxGeometry relative="1" as="geometry" />
        </mxCell>
        <mxCell id="Sms47V91jZUVCMup1u5s-2" value="&lt;p style=&quot;line-height: 120%; font-size: 14px;&quot;&gt;clientes&lt;/p&gt;" style="rounded=1;whiteSpace=wrap;html=1;opacity=50;" vertex="1" parent="1">
          <mxGeometry x="200" y="720" width="420" height="50" as="geometry" />
        </mxCell>
        <mxCell id="Sms47V91jZUVCMup1u5s-3" value="fornecedores" style="rounded=1;whiteSpace=wrap;html=1;fontSize=13;opacity=50;" vertex="1" parent="1">
          <mxGeometry x="200" y="780" width="420" height="50" as="geometry" />
        </mxCell>
        <mxCell id="Sms47V91jZUVCMup1u5s-4" value="pedidos" style="rounded=1;whiteSpace=wrap;html=1;fontSize=13;opacity=50;" vertex="1" parent="1">
          <mxGeometry x="204" y="660" width="416" height="50" as="geometry" />
        </mxCell>
        <mxCell id="Sms47V91jZUVCMup1u5s-5" value="tela de inicio" style="text;html=1;align=center;verticalAlign=middle;resizable=0;points=[];autosize=1;fontStyle=1;fontFamily=Helvetica;fontSize=30;fillColor=none;strokeColor=none;fontColor=#E6E6E6;textOpacity=80;" vertex="1" parent="1">
          <mxGeometry x="314" y="535" width="190" height="50" as="geometry" />
        </mxCell>
      </root>
    </mxGraphModel>
  </diagram>
  <diagram id="E6zBTN_Kytaoye5JOx7m" name="Página-2">
    <mxGraphModel dx="1687" dy="920" grid="1" gridSize="10" guides="1" tooltips="1" connect="1" arrows="1" fold="1" page="1" pageScale="1" pageWidth="827" pageHeight="1169" math="0" shadow="0">
      <root>
        <mxCell id="0" />
        <mxCell id="1" parent="0" />
        <mxCell id="oxayuzA_X9XVp1Uuh2jD-1" value="" style="rounded=1;whiteSpace=wrap;html=1;strokeColor=#333333;fillColor=#333333;" vertex="1" parent="1">
          <mxGeometry x="244" y="170" width="340" height="580" as="geometry" />
        </mxCell>
        <mxCell id="oxayuzA_X9XVp1Uuh2jD-2" value="cadastro dos&amp;nbsp;&lt;div&gt;clientes&lt;/div&gt;" style="text;html=1;align=center;verticalAlign=middle;resizable=0;points=[];autosize=1;fontStyle=1;fontFamily=Helvetica;fontSize=30;fillColor=none;strokeColor=none;fontColor=#E6E6E6;textOpacity=80;" vertex="1" parent="1">
          <mxGeometry x="314" y="160" width="200" height="90" as="geometry" />
        </mxCell>
        <mxCell id="oxayuzA_X9XVp1Uuh2jD-3" value="&lt;p style=&quot;line-height: 120%; font-size: 15px;&quot;&gt;&amp;nbsp;criar clientes&lt;/p&gt;" style="rounded=1;whiteSpace=wrap;html=1;opacity=50;fontSize=15;" vertex="1" parent="1">
          <mxGeometry x="314" y="310" width="200" height="50" as="geometry" />
        </mxCell>
        <mxCell id="oxayuzA_X9XVp1Uuh2jD-4" value="modificar cliente" style="rounded=1;whiteSpace=wrap;html=1;fontSize=15;opacity=50;" vertex="1" parent="1">
          <mxGeometry x="314" y="370" width="200" height="50" as="geometry" />
        </mxCell>
        <mxCell id="oxayuzA_X9XVp1Uuh2jD-5" value="&lt;font style=&quot;font-size: 15px;&quot;&gt;deletar cliente&lt;/font&gt;" style="rounded=1;whiteSpace=wrap;html=1;fontSize=13;opacity=50;" vertex="1" parent="1">
          <mxGeometry x="314" y="430" width="200" height="50" as="geometry" />
        </mxCell>
        <mxCell id="exmD4PVOcuJf-kINfBz6-1" value="" style="rounded=1;whiteSpace=wrap;html=1;strokeColor=#333333;fillColor=#333333;" vertex="1" parent="1">
          <mxGeometry x="640" y="170" width="340" height="580" as="geometry" />
        </mxCell>
        <mxCell id="exmD4PVOcuJf-kINfBz6-2" value="criar cliente" style="text;html=1;align=center;verticalAlign=middle;resizable=0;points=[];autosize=1;fontStyle=1;fontFamily=Helvetica;fontSize=30;fillColor=none;strokeColor=none;fontColor=#E6E6E6;textOpacity=80;" vertex="1" parent="1">
          <mxGeometry x="720" y="190" width="180" height="50" as="geometry" />
        </mxCell>
        <mxCell id="exmD4PVOcuJf-kINfBz6-6" value="" style="rounded=1;whiteSpace=wrap;html=1;" vertex="1" parent="1">
          <mxGeometry x="670" y="330" width="259" height="40" as="geometry" />
        </mxCell>
        <mxCell id="exmD4PVOcuJf-kINfBz6-8" value="nome" style="text;html=1;align=center;verticalAlign=middle;resizable=0;points=[];autosize=1;strokeColor=none;fillColor=none;fontColor=#FFFFFF;fontSize=14;" vertex="1" parent="1">
          <mxGeometry x="665" y="300" width="60" height="30" as="geometry" />
        </mxCell>
        <mxCell id="exmD4PVOcuJf-kINfBz6-9" value="telefone" style="text;html=1;align=center;verticalAlign=middle;resizable=0;points=[];autosize=1;strokeColor=none;fillColor=none;fontColor=#FFFFFF;fontSize=14;" vertex="1" parent="1">
          <mxGeometry x="660" y="410" width="70" height="30" as="geometry" />
        </mxCell>
        <mxCell id="exmD4PVOcuJf-kINfBz6-10" value="" style="rounded=1;whiteSpace=wrap;html=1;" vertex="1" parent="1">
          <mxGeometry x="670" y="450" width="259" height="40" as="geometry" />
        </mxCell>
        <mxCell id="exmD4PVOcuJf-kINfBz6-11" value="&lt;h2&gt;cadastrar cliente&lt;/h2&gt;" style="rounded=1;whiteSpace=wrap;html=1;fillColor=#d5e8d4;strokeColor=#82b366;align=center;" vertex="1" parent="1">
          <mxGeometry x="704.5" y="570" width="190" height="60" as="geometry" />
        </mxCell>
        <mxCell id="exmD4PVOcuJf-kINfBz6-12" value="" style="rounded=1;whiteSpace=wrap;html=1;strokeColor=#333333;fillColor=#333333;" vertex="1" parent="1">
          <mxGeometry x="1060" y="180" width="340" height="580" as="geometry" />
        </mxCell>
        <mxCell id="exmD4PVOcuJf-kINfBz6-13" value="&lt;p style=&quot;line-height: 120%; font-size: 15px;&quot;&gt;&amp;nbsp; cliente 1&lt;/p&gt;" style="rounded=1;whiteSpace=wrap;html=1;opacity=50;fontSize=15;" vertex="1" parent="1">
          <mxGeometry x="1065" y="270" width="330" height="50" as="geometry" />
        </mxCell>
        <mxCell id="exmD4PVOcuJf-kINfBz6-15" value="BC cliente" style="text;html=1;align=center;verticalAlign=middle;resizable=0;points=[];autosize=1;fontStyle=1;fontFamily=Helvetica;fontSize=30;fillColor=none;strokeColor=none;fontColor=#E6E6E6;textOpacity=80;" vertex="1" parent="1">
          <mxGeometry x="1150" y="200" width="160" height="50" as="geometry" />
        </mxCell>
        <mxCell id="exmD4PVOcuJf-kINfBz6-17" value="&lt;p style=&quot;line-height: 120%; font-size: 15px;&quot;&gt;&amp;nbsp;cliente 2&lt;/p&gt;" style="rounded=1;whiteSpace=wrap;html=1;opacity=50;fontSize=15;" vertex="1" parent="1">
          <mxGeometry x="1065" y="320" width="330" height="50" as="geometry" />
        </mxCell>
        <mxCell id="exmD4PVOcuJf-kINfBz6-18" value="&lt;p style=&quot;line-height: 120%; font-size: 15px;&quot;&gt;&amp;nbsp;cliente 3&lt;/p&gt;" style="rounded=1;whiteSpace=wrap;html=1;opacity=50;fontSize=15;" vertex="1" parent="1">
          <mxGeometry x="1065" y="370" width="330" height="50" as="geometry" />
        </mxCell>
        <mxCell id="exmD4PVOcuJf-kINfBz6-19" value="&lt;p style=&quot;line-height: 120%; font-size: 15px;&quot;&gt;&amp;nbsp;clientes&lt;/p&gt;" style="rounded=1;whiteSpace=wrap;html=1;opacity=50;fontSize=15;" vertex="1" parent="1">
          <mxGeometry x="1065" y="420" width="330" height="50" as="geometry" />
        </mxCell>
        <mxCell id="exmD4PVOcuJf-kINfBz6-20" value="&lt;p style=&quot;line-height: 120%; font-size: 15px;&quot;&gt;&amp;nbsp;criar clientes&lt;/p&gt;" style="rounded=1;whiteSpace=wrap;html=1;opacity=50;fontSize=15;" vertex="1" parent="1">
          <mxGeometry x="1065" y="470" width="330" height="50" as="geometry" />
        </mxCell>
        <mxCell id="exmD4PVOcuJf-kINfBz6-21" value="&lt;p style=&quot;line-height: 120%; font-size: 15px;&quot;&gt;&amp;nbsp;criar clientes&lt;/p&gt;" style="rounded=1;whiteSpace=wrap;html=1;opacity=50;fontSize=15;" vertex="1" parent="1">
          <mxGeometry x="1065" y="520" width="330" height="50" as="geometry" />
        </mxCell>
        <mxCell id="exmD4PVOcuJf-kINfBz6-22" value="&lt;p style=&quot;line-height: 120%; font-size: 15px;&quot;&gt;&amp;nbsp;criar clientes&lt;/p&gt;" style="rounded=1;whiteSpace=wrap;html=1;opacity=50;fontSize=15;" vertex="1" parent="1">
          <mxGeometry x="1065" y="570" width="330" height="50" as="geometry" />
        </mxCell>
        <mxCell id="exmD4PVOcuJf-kINfBz6-23" value="&lt;p style=&quot;line-height: 120%; font-size: 15px;&quot;&gt;&amp;nbsp;criar clientes&lt;/p&gt;" style="rounded=1;whiteSpace=wrap;html=1;opacity=50;fontSize=15;" vertex="1" parent="1">
          <mxGeometry x="1065" y="670" width="330" height="50" as="geometry" />
        </mxCell>
        <mxCell id="exmD4PVOcuJf-kINfBz6-24" value="&lt;p style=&quot;line-height: 120%; font-size: 15px;&quot;&gt;&amp;nbsp;criar clientes&lt;/p&gt;" style="rounded=1;whiteSpace=wrap;html=1;opacity=50;fontSize=15;" vertex="1" parent="1">
          <mxGeometry x="1065" y="620" width="330" height="50" as="geometry" />
        </mxCell>
      </root>
    </mxGraphModel>
  </diagram>
</mxfile>
